<svg viewBox="0 0 420 190" xmlns="http://www.w3.org/2000/svg"><g transform="matrix(1.008225,0,0,1,-7.59395,-136.402893)"><text style="fill:#ff9912;font-family: Arial,sans-serif;font-size: 161.964px;font-weight: 700;white-space: pre;" transform="matrix(1.006732,0,0,1.010448,-0.050709,-1.422419)" x="7.532" y="282.373">SE</text><g transform="matrix(1,0,0,1,0,1.513885)"><ellipse style="fill:#40b38a;" cx="303.778" cy="221.889" rx="80" ry="80"></ellipse><ellipse style="fill:#fff;" cx="303.778" cy="221.889" rx="65" ry="65"></ellipse><ellipse style="fill:#40b38a;" cx="303.778" cy="221.889" rx="50" ry="50"></ellipse><ellipse style="fill:#fff;" cx="303.778" cy="221.889" rx="35" ry="35"></ellipse><ellipse style="fill:#40b38a;" cx="303.778" cy="221.889" rx="20" ry="20"></ellipse><path style="fill:#ff9912;" d="M 355.903 196.46 L 355.903 296.46 L 347.968 310.316 L 347.968 340.316 L 357.886 322.996 L 367.805 340.316 L 367.805 310.316 L 359.87 296.46 L 359.87 196.46 C 359.886 194.918 355.919 194.918 355.903 196.46 Z" transform="matrix(0.642787,-0.772346,0.759796,0.642787,-75.638964,372.077275)"></path></g></g></svg>