<svg viewBox="0 0 459 256" xmlns="http://www.w3.org/2000/svg" class="logo"><style>:root{--primary:#cbcbcb;--secondary:#ededed;}</style><defs><linearGradient gradientUnits="userSpaceOnUse" x1="255.679" y1="74.668" x2="255.679" y2="330.905" id="gradient-1" gradientTransform="matrix(1,0,0,1,0,0)"><stop offset="0" style="stop-color:var(--secondary)"></stop><stop offset="1" style="stop-color:var(--primary)"></stop></linearGradient><linearGradient gradientUnits="userSpaceOnUse" x1="113.89" y1="97.728" x2="113.89" y2="330.561" id="gradient-2" gradientTransform="matrix(0.934291,0.371135,-0.448941,1.130159,391.539913,-73.077843)"><stop offset="0" style="stop-color:var(--secondary)"></stop><stop offset="1" style="stop-color:var(--primary)"></stop></linearGradient><linearGradient gradientUnits="userSpaceOnUse" x1="113.89" y1="97.415" x2="113.89" y2="330.561" id="gradient-0" gradientTransform="matrix(-0.936481,-0.350717,0.289165,-0.772131,181.243676,399.365469)"><stop offset="0" style="stop-color:var(--secondary)"></stop><stop offset="1" style="stop-color:var(--primary)"></stop></linearGradient></defs><g transform="matrix(1.002832,0,0,1.001684,-27.713268,-74.778381)"><path d="M 117.65 127.529 C 126.101 112.619 133.236 96.859 146.861 97.43 C 161.567 98.046 170.864 117.219 175.368 127.365 C 177.615 132.427 186.289 153.087 200.078 200.359 C 201.773 206.169 171.006 268.907 163.299 283.182 C 157.624 293.694 144.952 308.983 134.549 316.55 C 120.707 326.619 105.637 330.754 86.538 330.485 C 82.422 330.427 42.723 330.302 27.635 330.302 L 117.65 127.529 Z" style="fill: url(#gradient-0);"></path><path d="M 133.05 103.549 C 138.259 98.827 146.164 96.576 152.09 99.121 C 155.73 100.685 160.438 103.394 163.885 108.148 C 169.009 115.215 172.733 120.742 176.986 131.372 C 179.583 137.863 188.145 163.146 189.661 167.739 C 195.717 186.089 218.84 260.785 223.198 271.636 C 227.924 283.403 231.176 294.748 248.346 309.594 C 261.271 320.77 286.485 330.855 309.321 330.905 C 318.287 330.925 336.49 328.014 344.742 325.458 C 356.474 321.825 370.551 312.165 377.211 304.934 C 378.102 303.967 373.349 306.281 372.608 306.651 C 369.786 308.063 362.841 308.184 359.785 306.09 C 344.632 295.707 339.738 285.465 330.943 263.638 C 326.441 252.466 313.179 205.144 310.729 197.353 C 291.789 137.127 282.329 105.408 269.668 93.923 C 253.097 78.892 231.971 73.749 204.499 74.799 C 166.738 76.242 158.158 83.239 153.497 85.566 C 144.749 89.934 133.05 103.549 133.05 103.549 Z" style="fill: url(#gradient-1);"></path><path d="M 402.463 107.461 C 416.859 81.796 417.854 73.817 431.551 74.391 C 446.335 75.01 455.682 94.285 460.21 104.485 C 462.468 109.574 471.188 130.343 485.051 177.866 C 486.755 183.707 455.259 246.778 448.359 261.129 C 443.155 271.952 429.632 287.067 419.174 294.674 C 405.259 304.796 385.307 307.823 370.908 308.683 C 366.777 308.929 326.861 308.499 311.693 308.499 L 402.463 107.461 Z" style="fill: url(#gradient-2);" transform="matrix(-1,0,0,-1,796.810608,383.135117)"></path></g></svg>