<svg viewBox="0 0 500 500" xmlns="http://www.w3.org/2000/svg"><path style="fill: rgb(250, 248, 255);" d="M 229.166 497.106 C 120.165 493.946 41.867 286.528 32.986 256.366 C 12.108 185.46 8.713 112.409 60.764 74.074 C 138.213 17.033 203.884 2.414 289.352 1.157 C 303.569 0.948 367.399 12.981 416.667 76.388 C 424.545 86.527 495.523 210.583 499.421 259.259 C 506.415 346.584 449.409 403.685 406.829 438.078 C 339.886 492.15 250.462 497.723 229.166 497.106 Z"></path><path style="fill: rgb(218, 168, 148);" d="M 120.061 322.858 C 121.01 322.858 133.668 320.195 139.835 318.345 C 147.24 316.124 175.83 295.404 177.661 294.488 C 179.399 293.619 220.802 291.988 222.403 295.378 C 223.536 297.777 178.619 325.944 174.867 326.511 C 169.044 327.392 120.061 322.858 120.061 322.858 Z"></path><g><path style="fill: rgb(198, 199, 211);" d="M 235.839 334.363 C 249.535 334.363 357.988 334.945 360.409 334.147 C 363.506 333.126 409.935 171.258 410.625 170.568 C 411.439 169.754 271.399 172.224 271.399 171.215 L 235.839 334.363 Z"></path><path style="fill: rgb(224, 224, 233);" d="M 359.245 334.141 C 362.039 325.023 389.557 201.758 395.146 186.405 C 400.038 172.967 403.267 166.661 414.515 172.32 C 425.504 177.85 430.013 195.373 428.005 213.39 C 426.286 228.819 403.643 334.67 401.814 334.67 L 359.245 334.141 Z"></path></g><g><path style="fill: rgb(124, 143, 183);" d="M 334.255 171.016 C 333.286 171.016 319.065 219.383 319.207 219.518 C 319.315 219.619 345.062 216.213 345.754 215.559 C 346.031 215.296 349.624 197.604 351.298 197.186 C 361.725 194.583 374.078 171.514 374.078 170.622 L 334.255 171.016 Z"></path><path style="fill: rgb(124, 143, 183);" d="M 322.319 333.361 C 322.319 331.127 326.882 304.7 327.168 304.413 C 328.216 303.366 335.713 299.397 350.479 267.445 C 369.964 225.28 342.746 222.378 353.842 218.162 C 366.233 213.454 369.565 217.264 370.889 219.228 C 376.245 227.177 372.351 257.128 365.029 274.57 C 353.376 302.327 347.575 313.404 346.618 313.322 C 345.537 313.229 340.189 312.328 339.64 312.876 C 338.552 313.965 336.127 331.884 336.127 333.264 L 322.319 333.361 Z"></path></g><g><rect x="0.579" y="333.168" width="380.787" height="15.692" style="fill: rgb(236, 236, 245);"></rect><rect x="376.882" y="333.152" width="45.639" height="15.787" style="fill: rgb(214, 214, 217);"></rect></g><g transform="matrix(1, 0, 0, 1, 4, 0)"><g transform="matrix(0.988549, 0, 0, 1, 2.664033, 0)"><rect x="10.709" y="158.788" width="221.944" height="138.514" style="fill: rgb(23, 22, 59);" rx="7.487" ry="7.487"></rect><rect x="6.325" y="158.52" width="221.944" height="138.514" style="fill: rgb(39, 38, 85);" rx="7.487" ry="7.487"></rect></g><g transform="matrix(1, 0, 0, 1, 1.301886, -2.603772)"><rect x="75.617" y="207.722" width="70.481" height="47.164" style="fill: rgb(38, 30, 75);" rx="7.487" ry="7.487"></rect><rect x="73.282" y="207.454" width="71.129" height="47.598" style="fill: rgb(49, 41, 90);" rx="7.487" ry="7.487"></rect></g><g transform="matrix(0.779741, 0, 0, 1, 23.142132, 0)"><rect x="101.301" y="220.289" width="21.927" height="102.148" style="fill: rgb(23, 22, 59);"></rect><rect x="97.615" y="219.909" width="21.927" height="102.796" style="fill: rgb(39, 38, 85);"></rect></g><g><rect x="43.371" y="322.29" width="115.339" height="10.851" style="fill: rgb(33, 43, 87);"></rect><rect x="158.705" y="322.267" width="18.832" height="10.851" style="fill: rgb(18, 26, 61);"></rect></g></g><g><path style="fill: rgb(2, 13, 59);" d="M 235.65 278.078 C 237.254 275.673 242.362 272.241 244.834 269.671 C 247.219 267.191 254.614 258.214 255.528 256.385 C 256.52 254.402 267.27 240.678 267.75 240.897 C 268.543 241.259 258.375 266.314 257.116 267.97 C 256.21 269.161 236.476 287.832 235.624 288.41 L 235.65 278.078 Z"></path><path style="fill: rgb(2, 13, 59);" d="M 244.982 315.593 C 244.982 315.593 256.625 311.229 259.143 309.969 C 261.151 308.966 277.268 300.952 280.673 299.288 C 284.158 297.584 292.191 293.018 292.246 292.282 C 292.365 290.67 290.421 288.951 290.854 287.824 C 292.634 283.193 309.888 248.663 309.888 248.663 C 309.888 248.663 302.048 273.228 299.198 278.928 C 298.493 280.336 297.259 288.235 296.091 289.404 C 296.021 289.473 296.833 291.041 296.903 291.111 C 297.264 291.472 306.968 296.936 308.733 298.287 C 318.33 305.635 328.506 303.46 328.506 304.388 C 328.506 305.319 325.602 320.122 325.371 321.471 C 324.444 326.889 306.561 332.913 302.164 333.372 C 300.783 333.516 235.872 334.592 235.004 333.724 C 234.62 333.34 242.78 319.054 244.982 315.593 Z"></path><path style="fill: rgb(33, 43, 87);" d="M 235.602 278.263 C 239.915 274.581 248.008 267.255 250.317 264.262 C 254.269 259.141 264.659 244.271 267.352 241.578 C 267.578 241.352 253.997 272.553 256.079 268.38 C 257.846 264.838 239.161 317.482 239.161 317.482 C 239.161 317.482 284.283 301.359 292.282 293.101 C 293.847 291.485 290.989 288.617 291.02 288.546 C 291.336 287.809 307.94 251.927 308.738 251.927 C 308.875 251.927 298.741 278.604 298.048 281.478 C 297.363 284.318 295.64 289.928 295.957 290.244 C 297.229 291.516 299.59 294.503 300.926 295.839 C 301.869 296.782 309.65 301.254 314.534 303.281 C 316.307 304.017 327.681 306.241 330.434 306.151 C 336.276 305.961 336.659 306.947 338.04 304.185 C 339.949 300.367 359.432 254.533 361.24 245.705 C 362.112 241.447 366.315 223.103 352.149 216.078 C 345.697 212.878 323.164 216.933 320.792 219.304 C 318.728 221.369 310.913 235.877 293.263 235.519 C 289.023 235.433 288.204 228.849 288.903 227.317 C 291.159 222.377 290.962 219.391 290.689 219.117 C 286.989 215.417 278.192 214.716 271.185 217.628 C 263.094 220.991 236.626 237.112 235.642 240.62 L 235.602 278.263 Z"></path><path style="fill: rgb(33, 43, 87);" d="M 300.322 333.442 C 301.33 333.442 311.067 331.223 316.394 328.638 C 323.11 325.379 325.181 321.992 325.181 321.992 C 325.181 321.992 322.321 331.83 322.321 333.177 L 300.322 333.442 Z"></path></g><g transform="matrix(0.999901, 0.014087, -0.014087, 0.999901, 4.440193, -2.556911)"><path style="fill: rgb(60, 60, 66);" d="M 177.716 333.224 C 176.965 327.32 179.638 313.521 197.117 312.699 C 212.773 311.962 232.525 333.225 233.855 333.225 L 177.716 333.224 Z"></path><path style="fill: rgb(234, 194, 173);" d="M 299.572 292.744 C 288.672 298.231 244.513 315.163 236.932 315.343 C 234.603 315.398 217.835 307.931 215.933 307.621 C 213.635 307.246 210.142 307.134 209.063 306.81 C 205.547 305.755 193.69 303.451 192.294 304.847 C 191.176 305.965 187.615 308.514 186.534 309.595 C 185.477 310.652 181.352 313.474 183.736 315.352 C 184.609 316.04 187.967 314.136 188.926 313.178 C 189.77 312.334 192.372 310.244 193.105 309.512 C 194.448 308.168 201.755 310.523 203.206 311.216 C 203.271 311.247 196.84 313.835 195.157 314.76 C 192.09 316.444 185.687 320.484 185.223 321.655 C 184.812 322.693 181.882 324.193 182.884 325.723 C 184.117 327.605 187.531 324.181 189.182 322.855 C 189.345 322.724 197.84 317.457 197.84 317.457 C 197.84 317.457 201.075 317.048 200.82 317.21 C 198.43 318.734 185.643 326.655 188.776 329.845 C 189.497 330.579 191.662 329.797 192.643 328.6 C 194.938 325.799 200.035 322.059 203.106 320.041 C 205.029 318.778 209.422 319.638 209.422 319.638 C 209.422 319.638 206.903 320.425 203.808 323.087 C 201.438 325.125 197.419 328.9 198.118 330.073 C 198.705 331.058 200.263 330.861 201.024 329.883 C 203.08 327.242 203.556 326.854 206.496 324.842 C 206.858 324.594 212.394 322.151 213.214 322.208 C 216.473 322.435 219.807 324.599 221.117 325.908 C 222.24 327.031 229.97 328.066 230.909 327.907 C 232.631 327.616 231.554 327.332 240.443 326.988 C 243.375 326.875 260.503 327.985 271.916 326.027 C 280.419 324.568 297.818 318.837 304.547 313.863 C 311.325 308.853 314.689 304.289 316.324 302.172"></path><g><path style="fill: rgb(228, 165, 141);" d="M 316.024 301.807 C 314.163 303.668 315.512 304.631 306.994 311.42 C 296.546 319.747 285.095 322.347 280.921 323.39 C 279.396 323.772 266.924 326.069 265.095 326.374 C 261.42 326.987 239.48 326.413 235.719 326.413 C 234.143 326.413 226.915 327.155 223.314 326.383 C 222.056 326.113 219.369 324.308 218.938 324.093 C 215.952 322.6 215.213 321.837 211.648 322.325 C 208.988 322.689 203.451 326.609 203.092 327.327 C 202.764 327.982 199.989 330.574 200.095 330.68 C 200.151 330.735 201.314 330.699 201.443 330.57 C 201.939 330.073 203.499 329.264 204.233 328.815 C 205.495 328.043 205.995 326.81 208.302 325.861 C 209.067 325.546 213.016 324.265 214.076 324.795 C 215.789 325.652 217.375 327.079 218.626 328.336 C 218.991 328.702 221.499 331.16 223.831 331.939 C 226.602 332.865 231.662 332.532 232.279 332.514 C 233.969 332.466 236.18 331.819 236.395 331.75 C 237.345 331.444 239.198 331.679 239.282 331.764 C 239.688 332.17 242.055 333.017 245.047 333.079 C 248.348 333.147 260.919 332.576 262.272 332.273 C 264.032 331.879 275.258 330.927 277.338 330.636 C 278.67 330.449 288.482 329.521 290.142 329.179 C 293.556 328.476 303.653 326.772 304.935 326.454 C 306.628 326.034 310.111 325.437 311.228 324.879 C 312.295 324.345 318.769 322.274 319.658 321.675 C 322.422 319.81 325.194 316.327 325.766 315.755 C 326.692 314.829 333.681 305.436 333.681 304.065"></path><path style="fill: rgb(228, 165, 141);" d="M 189.689 330.295 C 190.314 329.982 191.516 329.225 191.961 328.78 C 192.406 328.335 194.07 326.765 194.565 326.271 C 195.891 324.945 197.42 324.078 198.778 322.72 C 199.243 322.255 200.464 321.508 200.578 321.394 C 201.136 320.836 203.766 319.58 204.034 319.312 C 204.216 319.129 205.057 319.424 205.217 319.264 C 205.393 319.087 206.035 319.264 206.258 319.264 C 207.343 319.264 208.643 319.283 209.241 319.88 C 209.322 319.961 208.643 320.037 208.578 320.069 C 208.143 320.286 207.383 320.737 206.921 320.968 C 206.649 321.104 206.312 320.732 205.974 320.732 C 205.868 320.732 205.521 320.523 205.453 320.59 C 205.208 320.835 204.431 320.935 204.081 321.11 C 203.469 321.416 202.729 321.563 202.282 322.01 C 200.084 324.207 197.251 325.242 194.944 327.549 C 194.329 328.164 193.243 329.013 192.766 329.49 C 192.484 329.772 190.885 330.2 190.777 330.2"></path><path style="fill: rgb(228, 165, 141);" d="M 201.54 316.943 C 201.54 316.943 197.515 319.436 196.672 320.279 C 195.84 321.111 194.406 321.412 193.282 321.974 C 192.052 322.589 189.174 324.599 188.852 324.927 C 188.299 325.492 186.526 326.522 185.516 326.731 C 184.649 326.91 183.711 326.374 183.711 326.349 C 183.711 326.162 185.205 325.784 185.297 325.692 C 186.025 324.964 187.327 324.209 187.977 323.559 C 188.708 322.828 189.543 322.257 190.656 321.7 C 191.695 321.181 192.167 320.453 193.172 319.95 C 195.703 318.685 198.715 316.123 201.54 316.943 Z"></path><path style="fill: rgb(228, 165, 141);" d="M 200.348 312.524 C 199.97 312.524 199.287 312.29 198.92 312.167 C 198.735 312.106 194.612 310.888 194.398 311.017 C 193.829 311.361 192.629 312.349 192.255 312.722 C 191.728 313.249 190.611 313.692 190.114 314.19 C 189.969 314.335 188.42 315.275 187.891 315.42 C 187.153 315.622 186.154 315.682 185.79 315.618 C 185.261 315.525 184.256 315.553 184.163 315.46 C 184.101 315.398 192.947 309.374 193.168 309.153 C 193.853 308.468 195.67 309.192 196.817 309.192 C 197.827 309.192 200.918 309.84 201.34 310.025 C 201.833 310.24 203.759 311.179 203.759 311.612 L 200.348 312.524 Z"></path></g></g><g transform="matrix(1.052604, 0, 0, 1.013151, -15.654283, -2.751719)"><path style="fill: rgb(234, 194, 173);" d="M 325.648 191.66 C 325.648 192.468 321.08 219.445 319.738 220.787 C 319.129 221.396 311.708 236.375 293.894 235.662 C 284.357 235.28 289.808 221.712 291.207 221.427 C 293.529 220.954 298.13 219.652 299.715 218.888 C 313.866 212.07 325.648 191.66 325.648 191.66 Z"></path><path style="fill: rgb(210, 140, 112);" d="M 290.19 212.365 C 307.133 213.254 325.554 191.956 325.554 191.956 C 325.554 191.956 324.437 199.76 324.002 200.629 C 322.518 203.598 316.09 212.101 299.715 219.541 C 293.234 222.486 291.092 221.195 291.045 220.922 C 290.252 216.27 290.19 212.365 290.19 212.365 Z"></path></g><g transform="matrix(0.965587, 0, 0, 0.965587, 10.712095, 14.506458)"><path style="fill: rgb(50, 25, 5);" d="M 307.43 64.947 C 296.279 61.23 277.147 58.508 266.342 68.255 C 249.712 83.258 254.503 111.367 254.503 113.063 L 307.43 64.947 Z"></path><path style="fill: rgb(56, 28, 6);" d="M 324.123 189.538 C 337.757 191.265 359.691 136.777 358.604 113.271 C 358.522 111.488 360.3 73.84 339.389 64.366 C 327.426 58.946 320.112 59.394 313.211 60.2 C 304.643 61.201 299.816 64.216 295.069 68.963 C 293.044 70.988 284.781 85.358 285.04 85.618 C 286.34 86.918 324.123 189.538 324.123 189.538 Z"></path><path style="fill: rgb(234, 194, 173); stroke: rgb(210, 140, 112);" d="M 289.256 85.57 C 269.497 85.473 264.906 91.656 263.91 92.765 C 262.113 94.765 257.252 101.339 254.772 107.238 C 253.006 111.439 253.571 126.666 252.543 128.723 C 250.902 132.006 249.543 152.187 250.062 159.248 C 250.561 166.038 253.078 177.151 255.004 184.07 C 256.254 188.561 265.056 200.343 266.017 201.353 C 272.289 207.947 290.683 207.872 293.998 206.277 C 298.265 204.224 308.513 199.158 314.046 195.903 C 322.787 190.761 335.377 181.446 336.715 179.296 C 338.308 176.736 342.322 157.852 342.322 156.097 C 342.322 154.803 343.951 144.129 343.128 143.306 C 341.567 141.745 336.38 140.721 336.38 139.877 C 336.38 136.861 337.12 126.89 333.661 122.788 C 331.385 120.088 328.316 117.041 326.689 114.069 C 325.759 112.369 329.57 100.902 323.145 93.918 C 318.142 88.479 307.595 85.66 289.256 85.57 Z"></path><g><path style="fill: rgb(234, 194, 173); stroke: rgb(210, 140, 112); stroke-width: 0px;" d="M 341.17 146.604 C 341.812 144.517 342.666 140.978 344.637 136.486 C 346.779 131.604 352.036 130.548 355.109 130.423 C 357.504 130.326 359.498 132.68 357.152 144.207 C 356.312 148.334 352.375 156.744 352.165 157.519 C 350.448 163.865 346.416 165.661 344.86 165.646 C 342.961 165.627 341.11 165.302 339.306 164.317 L 341.17 146.604 Z"></path><path style="fill: rgb(210, 140, 112);" d="M 349.557 149.649 C 349.223 150.409 346.637 149.971 345.306 150.9 C 344.56 151.42 343.292 153.798 342.983 154.242 C 342.627 154.754 344.257 153.406 344.494 153.169 C 344.972 152.691 345.807 152.542 346.203 152.495 C 346.752 152.43 348.767 152.342 349.77 152.219 C 350.461 152.134 352.711 150.968 352.961 149.578 C 353.265 147.888 352.29 146.925 352.29 146.464 C 352.29 146.041 352.155 144.033 351.45 143.681 C 350.847 143.379 349.112 143.571 348.6 143.06 C 348.353 142.813 346.294 142.342 345.803 143.999 C 345.439 145.228 346.231 146.025 346.824 146.619 C 347.377 147.172 348.256 147.584 348.826 148.155 C 348.943 148.272 349.786 149.128 349.557 149.649 Z"></path></g><g><path style="fill: rgb(6, 8, 0);" d="M 295.809 116.153 C 295.809 116.153 286.197 116.954 287.409 120.478 C 288.468 123.558 299.457 120.107 301.299 119.646 C 303.364 119.13 307.059 119.231 310.282 120.895 C 312.537 122.059 317.433 124.47 317.433 124.47 C 317.433 124.47 314.26 119.846 313.025 119.063 C 311.784 118.276 310.244 117.046 307.702 116.486 C 305.442 115.988 304.043 115.791 295.809 116.153 Z" transform="matrix(0.999636, -0.02698, 0.02698, 0.999636, -3.133429, 8.201657)"></path><path style="fill: rgb(0, 1, 0);" d="M 258.338 123.862 C 258.338 123.862 251.133 123.262 252.042 120.62 C 252.836 118.312 261.072 120.898 262.453 121.244 C 264.001 121.631 266.77 121.555 269.186 120.308 C 270.876 119.435 271.36 119.899 271.36 119.899 C 271.36 119.899 272.168 121.094 271.242 121.681 C 270.312 122.271 269.158 123.193 267.252 123.612 C 265.558 123.986 264.51 124.133 258.338 123.862 Z" transform="matrix(-0.997794, -0.066389, 0.066389, -0.997794, 514.983025, 260.786114)"></path></g><g><path style="stroke-width: 4px; stroke: rgb(0, 0, 0); fill: rgba(255, 255, 255, 0.31);" d="M 267.737 144.95 C 270.977 142.375 272.975 129.724 271.1 127.878 C 269.336 126.142 251.517 125.687 243.938 128.468 C 241.536 129.349 242.113 133.549 242.509 136.792 C 242.924 140.192 243.553 146.935 251.17 147.471 C 257.545 147.92 263.281 148.492 267.737 144.95 Z"></path><path style="stroke-width: 4px; stroke: rgb(0, 0, 0); fill: rgba(255, 255, 255, 0.31);" d="M 312.797 125.8 C 316.237 128.533 318.536 141.428 316.546 143.388 C 314.673 145.231 292.918 148.197 286.013 143.119 C 283.285 141.113 284.688 137.328 285.509 133.958 C 285.856 132.532 287.122 123.692 295.209 123.123 C 301.977 122.647 308.066 122.039 312.797 125.8 Z" transform="matrix(-0.999082, 0.042845, -0.042845, -0.999082, 607.173858, 255.694619)"></path><path style="stroke: rgb(0, 0, 0); stroke-width: 4px; fill: rgba(255, 255, 255, 0.31);" d="M 271.403 135.715 C 271.111 132.096 284.681 131.479 284.973 135.098"></path></g><g><path style="fill: rgb(255, 255, 255);" d="M 276.003 135.528 C 275.536 135.87 275.454 132.728 269.861 150.432 C 269.621 151.191 275.478 151.002 275.796 151.162 C 276.271 151.402 276.482 144.509 276.553 142.608 C 276.633 140.449 276.003 135.528 276.003 135.528 Z"></path><path style="fill: rgb(210, 140, 112);" d="M 269.91 159.913 C 267.925 158.504 267.733 154.381 270.091 153.95 C 282.942 151.6 285.924 159.306 285.091 159.306 L 269.91 159.913 Z" transform="matrix(0.999502, 0.031547, -0.031547, 0.999502, 5.084273, -8.664111)"></path></g><g transform="matrix(1, 0, 0, 1, 0, 1)"><g transform="matrix(1.045143, 0, 0, 1.045143, -12.057406, -5.697186)"><ellipse style="fill: rgb(0, 0, 7);" cx="261.765" cy="133.54" rx="3.693" ry="4.308"></ellipse><path style="fill: rgb(0, 0, 7);" d="M 256.564 132.635 C 256.22 133.756 258.883 133.325 261.39 132.503 C 264.399 131.516 267.147 127.348 266.272 128.05 C 263.927 129.93 262.539 130.669 259.182 131.897 C 258.029 132.318 256.833 131.76 256.564 132.635 Z" transform="matrix(-0.915342, -0.402678, 0.402678, -0.915342, 448.227466, 355.517768)"></path></g><g transform="matrix(0.956284, 0, 0, 0.956284, 12.726932, 5.484812)"><ellipse style="fill: rgb(0, 0, 7);" cx="297.966" cy="133.204" rx="5.315" ry="5.315"></ellipse><path style="fill: rgb(0, 0, 7);" d="M 291.401 133.294 C 291.401 133.294 295.911 131.173 299.822 130.679 C 302.263 130.37 309.201 130.066 309.201 130.066 C 309.201 130.066 303.109 128.079 299.081 128.547 C 294.511 129.078 291.929 131.162 291.401 133.294 Z" transform="matrix(0.934443, 0.356113, -0.356113, 0.934443, 66.296647, -98.360657)"></path></g></g><g><path style="fill: rgb(165, 97, 76);" d="M 265.334 175.216 C 266.749 174.934 275.04 173.613 281.044 173.544 C 287.867 173.465 296.644 177.448 296.624 177.43 C 295.597 176.502 289.164 171.144 281.316 171.207 C 274.353 171.262 267 173.641 265.334 175.216 Z"></path><path style="fill: rgb(210, 140, 112);" d="M 291.768 177.977 C 289.34 178.634 279.067 179.224 275.468 179.876 C 275.131 179.937 280.574 181.374 282.795 181.053 C 286.305 180.545 294.034 177.364 291.768 177.977 Z" transform="matrix(0.999327, -0.036672, 0.036672, 0.999327, -6.391693, 10.528806)"></path></g></g></svg>
